<svg width="174" height="58" viewBox="0 0 174 58" fill="none" xmlns="http://www.w3.org/2000/svg">
<g clip-path="url(#clip0_132_3537)">
<path d="M160.144 0.0001885H13.8641C13.3309 0.0001885 12.8041 0.0001885 12.2723 0.0030885C11.8271 0.0059885 11.3855 0.014413 10.9361 0.0215035C9.95968 0.0329611 8.98558 0.118619 8.02225 0.277733C7.06027 0.440311 6.12843 0.746816 5.25824 1.18688C4.38911 1.63067 3.59496 2.20733 2.90461 2.89594C2.21063 3.58261 1.63214 4.37631 1.19139 5.24652C0.749428 6.115 0.442969 7.04565 0.282599 8.00633C0.120704 8.96581 0.0335867 9.93634 0.0220292 10.9092C0.00853539 11.3538 0.00711041 11.7999 0 12.2445V45.7602C0.00711041 46.2104 0.00853539 46.6465 0.0220292 47.0969C0.0335902 48.0698 0.120707 49.0402 0.282599 49.9997C0.442526 50.9609 0.749004 51.8921 1.19139 52.7609C1.63194 53.6283 2.21051 54.4188 2.90461 55.1016C3.59235 55.7933 4.38701 56.3704 5.25824 56.8107C6.12842 57.252 7.06017 57.5603 8.02225 57.7254C8.98575 57.8833 9.95974 57.9689 10.9361 57.9818C11.3855 57.9916 11.8271 57.9973 12.2723 57.9973C12.8041 58.0002 13.3309 58.0002 13.8641 58.0002H160.144C160.666 58.0002 161.197 58.0002 161.72 57.9973C162.163 57.9973 162.617 57.9916 163.06 57.9818C164.035 57.9696 165.007 57.8839 165.969 57.7254C166.934 57.5592 167.869 57.2509 168.743 56.8107C169.614 56.3701 170.408 55.7931 171.095 55.1016C171.787 54.4161 172.367 53.6262 172.813 52.7609C173.252 51.8915 173.556 50.9604 173.713 49.9997C173.875 49.0401 173.965 48.0698 173.983 47.0969C173.989 46.6465 173.989 46.2104 173.989 45.7602C174 45.2334 174 44.7095 174 44.1741V13.8276C174 13.2966 174 12.7698 173.989 12.2445C173.989 11.7999 173.989 11.3538 173.983 10.9092C173.965 9.9362 173.875 8.96588 173.713 8.00628C173.555 7.04615 173.252 6.11557 172.813 5.24646C171.915 3.50222 170.492 2.08243 168.743 1.18675C167.869 0.747761 166.934 0.441337 165.969 0.277602C165.007 0.117788 164.035 0.0320998 163.06 0.0213005C162.617 0.0142245 162.163 0.0057275 161.72 0.0029C161.197 0 160.666 0 160.144 0V0.0001885Z" fill="black"/>
<path d="M12.2796 56.7311C11.8365 56.7311 11.4042 56.7254 10.9647 56.7155C10.0541 56.7037 9.14565 56.6247 8.24679 56.479C7.40865 56.3351 6.59672 56.0673 5.83777 55.6846C5.08579 55.305 4.39992 54.8073 3.80644 54.2105C3.20436 53.6208 2.70311 52.9368 2.32254 52.1856C1.93778 51.4296 1.6715 50.6192 1.53298 49.7827C1.38339 48.8838 1.30246 47.975 1.29088 47.0639C1.28166 46.7581 1.26959 45.7399 1.26959 45.7399V12.2441C1.26959 12.2441 1.28245 11.2416 1.29095 10.947C1.30204 10.0374 1.3825 9.12995 1.53164 8.23251C1.67042 7.39372 1.9369 6.58099 2.32187 5.82247C2.70104 5.07182 3.19951 4.3873 3.79796 3.79544C4.39573 3.19796 5.0838 2.69768 5.83706 2.31286C6.59426 1.93134 7.40466 1.66547 8.2411 1.52415C9.14292 1.37707 10.0545 1.29755 10.9682 1.28626L12.2803 1.26855H161.713L163.041 1.28697C163.946 1.2977 164.849 1.37651 165.743 1.52273C166.588 1.66582 167.407 1.93355 168.173 2.31711C169.682 3.09263 170.91 4.31959 171.684 5.82601C172.063 6.57929 172.325 7.38539 172.462 8.21694C172.613 9.12174 172.698 10.0363 172.715 10.9534C172.719 11.364 172.719 11.8051 172.719 12.2441C172.731 12.7878 172.731 13.3054 172.731 13.8272V44.1738C172.731 44.7006 172.731 45.2146 172.719 45.7328C172.719 46.2043 172.719 46.6363 172.714 47.0809C172.697 47.9816 172.614 48.8798 172.465 49.7685C172.329 50.611 172.065 51.4277 171.68 52.1899C171.297 52.933 170.798 53.611 170.203 54.1992C169.609 54.7992 168.922 55.2998 168.168 55.6818C167.405 56.0675 166.587 56.3363 165.743 56.479C164.844 56.6254 163.936 56.7045 163.025 56.7155C162.599 56.7254 162.153 56.7311 161.72 56.7311L160.144 56.734L12.2796 56.7311Z" fill="white"/>
<path d="M36.3471 28.84C36.3633 27.5815 36.6986 26.3475 37.3216 25.2528C37.9446 24.1582 38.8352 23.2385 39.9104 22.5793C39.2273 21.6065 38.3262 20.8059 37.2786 20.2412C36.231 19.6764 35.0658 19.363 33.8754 19.3259C31.3363 19.0601 28.8747 20.841 27.5808 20.841C26.2618 20.841 24.2697 19.3523 22.1244 19.3963C20.7368 19.441 19.3845 19.8433 18.1992 20.5642C17.0139 21.285 16.0361 22.2998 15.361 23.5095C12.4367 28.5584 14.618 35.9786 17.4193 40.0598C18.8208 42.0582 20.4588 44.2905 22.6021 44.2114C24.6995 44.1246 25.4828 42.8777 28.0145 42.8777C30.5226 42.8777 31.2575 44.2114 33.4443 44.161C35.6949 44.1246 37.1128 42.1537 38.4652 40.1364C39.4723 38.7124 40.2472 37.1386 40.7612 35.4733C39.4537 34.9219 38.3379 33.9988 37.553 32.8192C36.768 31.6396 36.3486 30.2557 36.3471 28.84Z" fill="black"/>
<path d="M32.2164 16.6413C33.4435 15.1723 34.0481 13.2842 33.9017 11.3779C32.027 11.5743 30.2952 12.4678 29.0516 13.8804C28.4435 14.5705 27.9778 15.3733 27.681 16.243C27.3843 17.1127 27.2623 18.0321 27.3222 18.9488C28.2599 18.9585 29.1875 18.7558 30.0353 18.3561C30.8831 17.9564 31.6288 17.3701 32.2164 16.6413Z" fill="black"/>
<path d="M61.5095 39.3517H54.6268L52.974 44.2185H50.0587L56.5779 26.2124H59.6067L66.1259 44.2185H63.161L61.5095 39.3517ZM55.3397 37.1058H60.7953L58.1059 29.2073H58.0305L55.3397 37.1058Z" fill="black"/>
<path d="M80.208 37.6561C80.208 41.7356 78.0184 44.3567 74.7141 44.3567C73.877 44.4003 73.0446 44.2081 72.312 43.8019C71.5795 43.3957 70.9764 42.792 70.572 42.0599H70.5094V48.5622H67.8072V31.0914H70.4228V33.2749H70.4725C70.8956 32.5464 71.5088 31.9458 72.2469 31.5371C72.9851 31.1284 73.8205 30.9269 74.6643 30.9541C78.0056 30.9541 80.208 33.5879 80.208 37.6561ZM77.4305 37.6561C77.4305 34.9982 76.0531 33.2509 73.9515 33.2509C71.8869 33.2509 70.4981 35.035 70.4981 37.6561C70.4981 40.3012 71.8869 42.0726 73.9515 42.0726C76.0531 42.0726 77.4304 40.338 77.4304 37.6561H77.4305Z" fill="black"/>
<path d="M94.4014 37.7044C94.4014 41.784 92.2111 44.405 88.9068 44.405C88.0697 44.4487 87.2373 44.2564 86.5047 43.8502C85.7722 43.444 85.1691 42.8403 84.7646 42.1082H84.7021V48.6106H81.9999V31.1398H84.6155V33.3233H84.6652C85.0883 32.5947 85.7015 31.9941 86.4396 31.5854C87.1778 31.1768 88.0132 30.9753 88.857 31.0024C92.1983 31.0024 94.4014 33.6362 94.4014 37.7044ZM91.6232 37.7044C91.6232 35.0466 90.2458 33.2992 88.1442 33.2992C86.0796 33.2992 84.6908 35.0834 84.6908 37.7044C84.6908 40.3496 86.0796 42.121 88.1442 42.121C90.2458 42.121 91.6232 40.3864 91.6232 37.7044Z" fill="black"/>
<path d="M104.271 39.202C104.471 40.9876 106.21 42.16 108.587 42.16C110.865 42.16 112.504 40.9875 112.504 39.3775C112.504 37.9799 111.515 37.143 109.175 36.5695L106.835 36.0074C103.519 35.2087 101.98 33.6625 101.98 31.1533C101.98 28.0465 104.695 25.9126 108.549 25.9126C112.366 25.9126 114.982 28.0465 115.07 31.1533H112.342C112.178 29.3563 110.689 28.2717 108.512 28.2717C106.335 28.2717 104.846 29.3691 104.846 30.9664C104.846 32.2394 105.797 32.9884 108.124 33.5619L110.114 34.049C113.819 34.9227 115.356 36.4067 115.356 39.0404C115.356 42.4091 112.667 44.519 108.387 44.519C104.383 44.519 101.679 42.4587 101.504 39.2018L104.271 39.202Z" fill="black"/>
<path d="M121.191 27.9844V31.0911H123.695V33.2251H121.191V40.4623C121.191 41.5866 121.692 42.1105 122.793 42.1105C123.09 42.1054 123.387 42.0846 123.682 42.0482V44.1694C123.187 44.2616 122.684 44.3033 122.181 44.294C119.516 44.294 118.476 43.2957 118.476 40.7497V33.2251H116.562V31.0911H118.476V27.9844H121.191Z" fill="black"/>
<path d="M125.143 37.6558C125.143 33.5252 127.583 30.9297 131.387 30.9297C135.204 30.9297 137.632 33.5252 137.632 37.6558C137.632 41.7976 135.216 44.3818 131.387 44.3818C127.558 44.3818 125.143 41.7976 125.143 37.6558ZM134.878 37.6558C134.878 34.8223 133.576 33.15 131.387 33.15C129.197 33.15 127.895 34.8351 127.895 37.6558C127.895 40.5005 129.197 42.1601 131.387 42.1601C133.576 42.1601 134.878 40.5005 134.878 37.6558H134.878Z" fill="black"/>
<path d="M139.86 31.0913H142.437V33.3258H142.499C142.674 32.6279 143.084 32.0112 143.66 31.5792C144.237 31.1473 144.945 30.9265 145.666 30.9539C145.977 30.9529 146.288 30.9866 146.592 31.0545V33.575C146.199 33.4552 145.789 33.4002 145.378 33.4122C144.985 33.3963 144.594 33.4653 144.23 33.6145C143.867 33.7637 143.541 33.9895 143.273 34.2764C143.006 34.5634 142.803 34.9046 142.681 35.2768C142.558 35.649 142.517 36.0432 142.562 36.4325V44.2192H139.86L139.86 31.0913Z" fill="black"/>
<path d="M159.051 40.3632C158.687 42.7463 156.36 44.3818 153.382 44.3818C149.552 44.3818 147.175 41.8231 147.175 37.7181C147.175 33.6003 149.565 30.9297 153.269 30.9297C156.911 30.9297 159.201 33.4247 159.201 37.4051V38.3284H149.903V38.4912C149.86 38.9743 149.921 39.4611 150.081 39.919C150.241 40.377 150.497 40.7957 150.832 41.1474C151.167 41.4991 151.574 41.7757 152.024 41.9589C152.474 42.142 152.959 42.2275 153.445 42.2097C154.083 42.2693 154.724 42.1218 155.272 41.7892C155.82 41.4565 156.245 40.9563 156.485 40.3632L159.051 40.3632ZM149.916 36.4451H156.498C156.522 36.0107 156.456 35.5759 156.304 35.1682C156.151 34.7604 155.916 34.3884 155.613 34.0756C155.31 33.7627 154.945 33.5157 154.542 33.3501C154.138 33.1845 153.705 33.1038 153.269 33.1132C152.829 33.1106 152.392 33.1949 151.985 33.3613C151.578 33.5276 151.208 33.7728 150.896 34.0825C150.584 34.3923 150.337 34.7606 150.169 35.1661C150.001 35.5716 149.915 36.0063 149.916 36.4451V36.4451Z" fill="black"/>
<path d="M55.0021 12.6602C55.5686 12.6197 56.1371 12.705 56.6665 12.9101C57.196 13.1152 57.6732 13.4349 58.0637 13.8461C58.4543 14.2574 58.7484 14.7499 58.9249 15.2883C59.1015 15.8266 59.156 16.3973 59.0846 16.9592C59.0846 19.7233 57.5865 21.3121 55.0021 21.3121H51.8682V12.6602H55.0021ZM53.2157 20.0886H54.8516C55.2564 20.1127 55.6615 20.0465 56.0374 19.8948C56.4134 19.7431 56.7507 19.5097 57.0247 19.2117C57.2988 18.9136 57.5028 18.5583 57.6218 18.1717C57.7409 17.7851 57.772 17.3769 57.7128 16.9769C57.7677 16.5783 57.7334 16.1727 57.6126 15.7889C57.4917 15.4052 57.2872 15.0528 57.0138 14.7571C56.7403 14.4614 56.4046 14.2297 56.0308 14.0785C55.657 13.9274 55.2543 13.8606 54.8516 13.8829H53.2157V20.0886Z" fill="black"/>
<path d="M60.6067 18.0445C60.5655 17.6154 60.6148 17.1825 60.7512 16.7735C60.8877 16.3645 61.1083 15.9884 61.3991 15.6695C61.6898 15.3505 62.0442 15.0956 62.4395 14.9212C62.8348 14.7468 63.2622 14.6567 63.6945 14.6567C64.1267 14.6567 64.5542 14.7468 64.9495 14.9212C65.3448 15.0956 65.6992 15.3505 65.9899 15.6695C66.2806 15.9884 66.5013 16.3645 66.6377 16.7735C66.7742 17.1825 66.8234 17.6154 66.7822 18.0445C66.8242 18.474 66.7756 18.9075 66.6395 19.3172C66.5034 19.7269 66.2828 20.1036 65.992 20.4232C65.7012 20.7428 65.3466 20.9982 64.9509 21.173C64.5552 21.3477 64.1272 21.438 63.6945 21.438C63.2617 21.438 62.8337 21.3477 62.438 21.173C62.0424 20.9982 61.6877 20.7428 61.3969 20.4232C61.1061 20.1036 60.8856 19.7269 60.7495 19.3172C60.6134 18.9075 60.5648 18.474 60.6067 18.0445ZM65.4531 18.0445C65.4531 16.6292 64.8155 15.8015 63.6966 15.8015C62.5734 15.8015 61.9415 16.6292 61.9415 18.0445C61.9415 19.4711 62.5734 20.2924 63.6966 20.2924C64.8156 20.2924 65.4531 19.4655 65.4531 18.0445H65.4531Z" fill="black"/>
<path d="M74.9885 21.3125H73.648L72.2948 16.5037H72.1925L70.845 21.3125H69.5173L67.7125 14.7832H69.0231L70.196 19.7654H70.2926L71.6388 14.7832H72.8784L74.2245 19.7654H74.3268L75.494 14.7832H76.7862L74.9885 21.3125Z" fill="black"/>
<path d="M78.3069 14.7829H79.5508V15.8201H79.6474C79.8112 15.4475 80.0874 15.1353 80.4377 14.9267C80.7879 14.7182 81.1947 14.6239 81.6013 14.6568C81.9199 14.6329 82.2397 14.6808 82.5372 14.797C82.8347 14.9131 83.1022 15.0945 83.3199 15.3277C83.5375 15.561 83.6998 15.84 83.7946 16.1443C83.8894 16.4485 83.9143 16.7701 83.8676 17.0853V21.312H82.5754V17.4089C82.5754 16.3596 82.1181 15.8378 81.1625 15.8378C80.9462 15.8277 80.7303 15.8645 80.5295 15.9454C80.3288 16.0264 80.148 16.1496 79.9995 16.3068C79.851 16.464 79.7383 16.6513 79.6692 16.8559C79.6001 17.0606 79.5762 17.2777 79.5991 17.4924V21.3121H78.3069L78.3069 14.7829Z" fill="black"/>
<path d="M85.9268 12.2339H87.2189V21.312H85.9268V12.2339Z" fill="black"/>
<path d="M89.0151 18.0446C88.9739 17.6155 89.0232 17.1826 89.1597 16.7735C89.2961 16.3645 89.5168 15.9885 89.8076 15.6695C90.0984 15.3505 90.4528 15.0956 90.8481 14.9212C91.2434 14.7468 91.6709 14.6567 92.1032 14.6567C92.5355 14.6567 92.963 14.7468 93.3583 14.9212C93.7536 15.0956 94.108 15.3505 94.3988 15.6695C94.6895 15.9885 94.9102 16.3645 95.0467 16.7735C95.1832 17.1826 95.2324 17.6155 95.1913 18.0446C95.2332 18.4741 95.1845 18.9077 95.0484 19.3173C94.9123 19.727 94.6917 20.1037 94.4009 20.4233C94.11 20.7429 93.7554 20.9983 93.3597 21.1731C92.964 21.3478 92.536 21.4381 92.1032 21.4381C91.6704 21.4381 91.2424 21.3478 90.8467 21.1731C90.451 20.9983 90.0963 20.7429 89.8055 20.4233C89.5147 20.1037 89.2941 19.727 89.158 19.3173C89.0219 18.9077 88.9732 18.4741 89.0151 18.0446ZM93.8615 18.0446C93.8615 16.6293 93.2239 15.8016 92.105 15.8016C90.9817 15.8016 90.3499 16.6293 90.3499 18.0446C90.3499 19.4713 90.9818 20.2925 92.105 20.2925C93.2239 20.2925 93.8615 19.4656 93.8615 18.0446H93.8615Z" fill="black"/>
<path d="M96.5517 19.4655C96.5517 18.2902 97.4293 17.6127 98.987 17.5164L100.761 17.4144V16.8509C100.761 16.1612 100.303 15.7718 99.4201 15.7718C98.6987 15.7718 98.1989 16.0359 98.0555 16.4976H96.8045C96.9365 15.3761 97.9944 14.6567 99.4797 14.6567C101.121 14.6567 102.047 15.4716 102.047 16.8509V21.312H100.803V20.3944H100.701C100.493 20.7236 100.202 20.9919 99.8565 21.172C99.511 21.3521 99.1237 21.4375 98.7342 21.4196C98.4594 21.4481 98.1815 21.4188 97.9187 21.3337C97.6559 21.2486 97.4138 21.1095 97.2082 20.9254C97.0026 20.7413 96.8379 20.5163 96.7248 20.2648C96.6118 20.0134 96.5528 19.7411 96.5517 19.4655ZM100.761 18.9076V18.3617L99.1616 18.4637C98.2599 18.5239 97.851 18.8297 97.851 19.4053C97.851 19.993 98.3622 20.3349 99.0651 20.3349C99.2711 20.3557 99.4791 20.335 99.6769 20.274C99.8747 20.2129 100.058 20.1129 100.216 19.9797C100.374 19.8465 100.504 19.683 100.598 19.4988C100.691 19.3146 100.747 19.1136 100.761 18.9076Z" fill="black"/>
<path d="M103.745 18.0445C103.745 15.9814 104.809 14.6744 106.463 14.6744C106.872 14.6556 107.278 14.7533 107.634 14.9562C107.99 15.159 108.28 15.4586 108.471 15.8199H108.568V12.2339H109.86V21.312H108.622V20.2804H108.519C108.313 20.6392 108.013 20.9351 107.651 21.1359C107.288 21.3367 106.878 21.4348 106.463 21.4196C104.798 21.4196 103.745 20.1126 103.745 18.0445ZM105.08 18.0445C105.08 19.4294 105.735 20.2627 106.83 20.2627C107.919 20.2627 108.592 19.4174 108.592 18.0502C108.592 16.6894 107.912 15.832 106.83 15.832C105.742 15.832 105.08 16.671 105.08 18.0445H105.08Z" fill="black"/>
<path d="M115.206 18.0445C115.165 17.6154 115.214 17.1825 115.351 16.7735C115.487 16.3645 115.708 15.9884 115.999 15.6695C116.289 15.3505 116.644 15.0956 117.039 14.9212C117.434 14.7468 117.862 14.6567 118.294 14.6567C118.726 14.6567 119.154 14.7468 119.549 14.9212C119.944 15.0956 120.299 15.3505 120.589 15.6695C120.88 15.9884 121.101 16.3645 121.237 16.7735C121.374 17.1825 121.423 17.6154 121.382 18.0445C121.424 18.474 121.375 18.9075 121.239 19.3172C121.103 19.7269 120.882 20.1036 120.592 20.4232C120.301 20.7428 119.946 20.9982 119.551 21.173C119.155 21.3477 118.727 21.438 118.294 21.438C117.861 21.438 117.433 21.3477 117.038 21.173C116.642 20.9982 116.287 20.7428 115.997 20.4232C115.706 20.1036 115.485 19.7269 115.349 19.3172C115.213 18.9075 115.164 18.474 115.206 18.0445ZM120.053 18.0445C120.053 16.6292 119.415 15.8015 118.296 15.8015C117.173 15.8015 116.541 16.6292 116.541 18.0445C116.541 19.4711 117.173 20.2924 118.296 20.2924C119.415 20.2924 120.053 19.4655 120.053 18.0445Z" fill="black"/>
<path d="M123.116 14.7824H124.359V15.8196H124.456C124.62 15.4471 124.896 15.1348 125.246 14.9262C125.597 14.7177 126.003 14.6234 126.41 14.6563C126.729 14.6324 127.048 14.6803 127.346 14.7965C127.643 14.9126 127.911 15.094 128.129 15.3272C128.346 15.5605 128.508 15.8395 128.603 16.1438C128.698 16.448 128.723 16.7696 128.676 17.0848V21.3115H127.384V17.4084C127.384 16.3591 126.927 15.8373 125.971 15.8373C125.755 15.8273 125.539 15.864 125.338 15.9449C125.137 16.0259 124.957 16.1492 124.808 16.3063C124.66 16.4635 124.547 16.6508 124.478 16.8554C124.409 17.0601 124.385 17.2772 124.408 17.4919V21.3116H123.116V14.7824Z" fill="black"/>
<path d="M135.978 13.1567V14.8121H137.396V15.8974H135.978V19.2548C135.978 19.9388 136.26 20.2382 136.904 20.2382C137.068 20.2377 137.233 20.2278 137.396 20.2085V21.2818C137.164 21.3232 136.929 21.3453 136.693 21.3477C135.256 21.3477 134.684 20.8436 134.684 19.5847V15.8974H133.645V14.812H134.684V13.1567H135.978Z" fill="black"/>
<path d="M139.161 12.2339H140.442V15.832H140.544C140.716 15.456 141 15.1419 141.357 14.9326C141.715 14.7233 142.128 14.6289 142.541 14.6624C142.858 14.6452 143.175 14.6979 143.469 14.8169C143.763 14.9358 144.027 15.1181 144.242 15.3506C144.458 15.5831 144.619 15.8601 144.715 16.1619C144.81 16.4637 144.838 16.7828 144.796 17.0965V21.312H143.502V17.4144C143.502 16.3715 143.015 15.8433 142.102 15.8433C141.88 15.8251 141.657 15.8556 141.448 15.9325C141.239 16.0094 141.049 16.131 140.892 16.2887C140.735 16.4463 140.614 16.6363 140.539 16.8453C140.463 17.0543 140.434 17.2773 140.454 17.4986V21.3119H139.161L139.161 12.2339Z" fill="black"/>
<path d="M152.33 19.5492C152.155 20.1459 151.774 20.6621 151.256 21.0074C150.737 21.3527 150.113 21.5052 149.493 21.4381C149.062 21.4495 148.633 21.3671 148.237 21.1967C147.841 21.0263 147.486 20.7719 147.198 20.4513C146.911 20.1306 146.696 19.7514 146.57 19.3398C146.444 18.9283 146.409 18.4943 146.468 18.068C146.411 17.6404 146.446 17.2055 146.572 16.7928C146.698 16.38 146.911 15.999 147.197 15.6755C147.484 15.3521 147.836 15.0937 148.231 14.918C148.626 14.7422 149.055 14.6532 149.487 14.6568C151.309 14.6568 152.408 15.898 152.408 17.9483V18.398H147.785V18.4702C147.765 18.7098 147.795 18.951 147.873 19.1783C147.952 19.4055 148.078 19.6139 148.242 19.79C148.406 19.9661 148.605 20.1061 148.827 20.2009C149.048 20.2958 149.287 20.3434 149.529 20.3407C149.838 20.3777 150.151 20.3222 150.428 20.1812C150.706 20.0403 150.935 19.8203 151.086 19.5491L152.33 19.5492ZM147.785 17.445H151.092C151.108 17.2258 151.078 17.0057 151.004 16.7988C150.93 16.5919 150.813 16.4027 150.662 16.2434C150.51 16.0841 150.326 15.9582 150.123 15.8738C149.919 15.7895 149.701 15.7485 149.48 15.7536C149.257 15.7508 149.035 15.7926 148.828 15.8766C148.621 15.9606 148.433 16.0851 148.275 16.2428C148.117 16.4004 147.992 16.588 147.908 16.7945C147.824 17.0009 147.782 17.2221 147.785 17.445H147.785Z" fill="black"/>
</g>
<defs>
<clipPath id="clip0_132_3537">
<rect width="174" height="58" fill="white"/>
</clipPath>
</defs>
</svg>
