<svg width="196" height="58" viewBox="0 0 196 58" fill="none" xmlns="http://www.w3.org/2000/svg">
<g clip-path="url(#clip0_132_3572)">
<path d="M187.833 0H7.22436C3.23446 0 0 3.24594 0 7.25V50.75C0 54.7541 3.23446 58 7.22436 58H187.833C191.823 58 195.058 54.7541 195.058 50.75V7.25C195.058 3.24594 191.823 0 187.833 0Z" fill="black"/>
<path d="M187.833 1.16C189.443 1.16 190.986 1.80162 192.124 2.94372C193.262 4.08582 193.902 5.63483 193.902 7.25V50.75C193.902 52.3652 193.262 53.9142 192.124 55.0563C190.986 56.1984 189.443 56.84 187.833 56.84H7.22436C5.6149 56.84 4.07137 56.1984 2.93331 55.0563C1.79525 53.9142 1.1559 52.3652 1.1559 50.75V7.25C1.1559 5.63483 1.79525 4.08582 2.93331 2.94372C4.07137 1.80162 5.6149 1.16 7.22436 1.16H187.833ZM187.833 0H7.22436C5.30834 0 3.4708 0.763837 2.11597 2.12348C0.761136 3.48311 0 5.32718 0 7.25V50.75C0 52.6728 0.761136 54.5169 2.11597 55.8765C3.4708 57.2362 5.30834 58 7.22436 58H187.833C189.749 58 191.587 57.2362 192.942 55.8765C194.297 54.5169 195.058 52.6728 195.058 50.75V7.25C195.058 5.32718 194.297 3.48311 192.942 2.12348C191.587 0.763837 189.749 0 187.833 0Z" fill="#A6A6A6"/>
<path d="M68.5159 14.8476C68.5404 15.3795 68.457 15.9108 68.2708 16.4093C68.0845 16.9078 67.7992 17.3631 67.4322 17.7476C67.0225 18.1748 66.5276 18.5105 65.9799 18.7329C65.4322 18.9552 64.8439 19.0592 64.2535 19.0381C63.3576 19.0311 62.4838 18.7589 61.7414 18.2556C60.9991 17.7524 60.4212 17.0405 60.0803 16.2091C59.7393 15.3777 59.6504 14.4638 59.8248 13.5819C59.9991 12.7001 60.4289 11.8894 61.0603 11.2516C61.4753 10.8265 61.9728 10.4913 62.5221 10.2668C63.0713 10.0424 63.6606 9.93338 64.2535 9.94664C64.8643 9.9446 65.4691 10.068 66.0307 10.3091C66.5535 10.5208 67.0189 10.8537 67.3889 11.2806L66.6231 12.0491C66.3347 11.7049 65.9705 11.4327 65.5592 11.254C65.148 11.0753 64.701 10.9951 64.2535 11.0196C63.8022 11.0174 63.3551 11.1067 62.939 11.2821C62.5228 11.4575 62.1463 11.7154 61.8319 12.0404C61.5176 12.3653 61.2718 12.7507 61.1094 13.1732C60.947 13.5958 60.8714 14.047 60.8869 14.4996C60.8775 15.1755 61.0677 15.8391 61.4336 16.4066C61.7995 16.9742 62.3247 17.4202 62.9429 17.6886C63.5611 17.9569 64.2447 18.0355 64.9074 17.9144C65.57 17.7933 66.1821 17.4779 66.6664 17.0081C67.111 16.5246 67.3675 15.8967 67.3889 15.2391H64.2535V14.1951H68.4581C68.4966 14.4105 68.5159 14.6288 68.5159 14.8476ZM75.1334 11.2226H71.2322V13.9776H74.7866V15.0216H71.2322V17.7766H75.1334V18.8496H70.0763V10.1496H75.1334V11.2226ZM79.8725 18.8496H78.76V11.2226H76.3326V10.1496H82.3577V11.2226H79.8725V18.8496ZM86.6057 18.8496V10.1496H87.7182V18.8496H86.6057ZM92.6597 18.8496H91.5471V11.2226H89.1197V10.1496H95.0726V11.2226H92.6597V18.8496ZM106.357 17.7186C105.512 18.5616 104.37 19.0348 103.178 19.0348C101.987 19.0348 100.844 18.5616 99.9996 17.7186C99.1786 16.8465 98.7212 15.6922 98.7212 14.4924C98.7212 13.2926 99.1786 12.1383 99.9996 11.2661C100.416 10.8453 100.911 10.5112 101.457 10.2833C102.002 10.0553 102.587 9.93799 103.178 9.93799C103.769 9.93799 104.354 10.0553 104.9 10.2833C105.445 10.5112 105.941 10.8453 106.357 11.2661C107.181 12.1366 107.641 13.2916 107.641 14.4924C107.641 15.6932 107.181 16.8482 106.357 17.7186ZM100.823 16.9936C101.449 17.6188 102.296 17.9697 103.178 17.9697C104.061 17.9697 104.908 17.6188 105.533 16.9936C106.151 16.3107 106.493 15.4217 106.493 14.4996C106.493 13.5776 106.151 12.6886 105.533 12.0056C104.908 11.3805 104.061 11.0295 103.178 11.0295C102.296 11.0295 101.449 11.3805 100.823 12.0056C100.206 12.6886 99.8639 13.5776 99.8639 14.4996C99.8639 15.4217 100.206 16.3107 100.823 16.9936ZM109.203 18.8496V10.1496H110.562L114.781 16.9211V10.1496H115.893V18.8496H114.737L110.33 11.7591V18.8496H109.203Z" fill="white" stroke="white" stroke-width="0.23" stroke-miterlimit="10"/>
<path d="M98.4536 31.5378C97.2403 31.5435 96.0559 31.9098 95.0499 32.5905C94.0439 33.2711 93.2613 34.2355 92.8009 35.3621C92.3406 36.4886 92.2231 37.7268 92.4633 38.9202C92.7035 40.1137 93.2906 41.2091 94.1505 42.068C95.0105 42.927 96.1047 43.511 97.2951 43.7464C98.4855 43.9819 99.7187 43.8582 100.839 43.3909C101.959 42.9236 102.917 42.1338 103.59 41.121C104.264 40.1082 104.623 38.9179 104.623 37.7003C104.635 36.8853 104.483 36.0763 104.177 35.3214C103.871 34.5664 103.416 33.8811 102.841 33.3061C102.265 32.7311 101.58 32.2782 100.826 31.9744C100.073 31.6707 99.2656 31.5222 98.4536 31.5378ZM98.4536 41.4413C97.7074 41.4937 96.9628 41.3196 96.3166 40.9416C95.6703 40.5637 95.1523 39.9994 94.8299 39.3221C94.5074 38.6447 94.3955 37.8857 94.5086 37.1437C94.6217 36.4017 94.9546 35.711 95.4641 35.1614C95.9735 34.6118 96.636 34.2287 97.3653 34.0619C98.0945 33.8952 98.857 33.9524 99.5534 34.2262C100.25 34.5001 100.848 34.9778 101.27 35.5974C101.693 36.217 101.919 36.9497 101.921 37.7003C101.945 38.1759 101.873 38.6514 101.71 39.0987C101.547 39.546 101.297 39.9561 100.974 40.3048C100.65 40.6534 100.261 40.9336 99.8282 41.1288C99.3953 41.324 98.928 41.4303 98.4536 41.4413ZM85.0018 31.5378C83.7879 31.5407 82.6021 31.9045 81.5942 32.5834C80.5862 33.2623 79.8014 34.2258 79.3389 35.3521C78.8763 36.4784 78.7567 37.717 78.9953 38.9114C79.2339 40.1059 79.8199 41.2026 80.6792 42.063C81.5386 42.9234 82.6328 43.5088 83.8236 43.7454C85.0144 43.9821 86.2483 43.8592 87.3695 43.3923C88.4908 42.9255 89.449 42.1356 90.1231 41.1225C90.7972 40.1094 91.157 38.9185 91.157 37.7003C91.1688 36.8853 91.017 36.0763 90.7108 35.3214C90.4045 34.5664 89.95 33.8811 89.3744 33.3061C88.7987 32.7311 88.1137 32.2782 87.36 31.9744C86.6063 31.6707 85.7994 31.5222 84.9874 31.5378H85.0018ZM85.0018 41.4413C84.2553 41.4966 83.5095 41.3251 82.8614 40.9491C82.2134 40.5731 81.6932 40.01 81.3685 39.3332C81.0438 38.6563 80.9297 37.897 81.041 37.1541C81.1523 36.4113 81.4839 35.7193 81.9926 35.1682C82.5013 34.6171 83.1636 34.2324 83.8931 34.0643C84.6227 33.8962 85.3858 33.9525 86.0831 34.2257C86.7804 34.4989 87.3796 34.9764 87.8026 35.5962C88.2257 36.2159 88.453 36.9491 88.4551 37.7003C88.4783 38.1759 88.4065 38.6514 88.2437 39.0987C88.081 39.546 87.8306 39.9561 87.5074 40.3048C87.1842 40.6534 86.7948 40.9336 86.3619 41.1288C85.9291 41.324 85.4618 41.4303 84.9874 41.4413H85.0018ZM68.9782 33.4373V36.0473H75.22C75.1222 37.2766 74.613 38.4366 73.7752 39.3388C73.1507 39.9772 72.4 40.4772 71.5713 40.8069C70.7427 41.1365 69.8544 41.2884 68.9637 41.2528C67.1244 41.2528 65.3603 40.5195 64.0597 39.2143C62.7591 37.909 62.0284 36.1387 62.0284 34.2928C62.0284 32.4469 62.7591 30.6766 64.0597 29.3714C65.3603 28.0661 67.1244 27.3328 68.9637 27.3328C70.7233 27.304 72.4224 27.9767 73.6885 29.2033L75.5235 27.3618C74.6688 26.4933 73.6491 25.8058 72.5248 25.34C71.4005 24.8743 70.1945 24.6397 68.9782 24.6503C67.6937 24.6001 66.4123 24.8107 65.2109 25.2694C64.0094 25.7281 62.9126 26.4255 61.9861 27.3198C61.0596 28.2141 60.3226 29.2868 59.8191 30.4738C59.3157 31.6608 59.0562 32.9375 59.0562 34.2276C59.0562 35.5176 59.3157 36.7944 59.8191 37.9813C60.3226 39.1683 61.0596 40.2411 61.9861 41.1354C62.9126 42.0296 64.0094 42.727 65.2109 43.1857C66.4123 43.6444 67.6937 43.855 68.9782 43.8048C70.2149 43.8609 71.4493 43.6505 72.5982 43.1878C73.7472 42.7251 74.784 42.0208 75.639 41.1223C77.1528 39.4533 77.961 37.2592 77.8931 35.0033C77.8977 34.4537 77.8493 33.905 77.7486 33.3648L68.9782 33.4373ZM134.445 35.4673C134.069 34.3548 133.364 33.3834 132.425 32.6816C131.486 31.9799 130.356 31.5811 129.186 31.5378C128.396 31.5363 127.613 31.6974 126.888 32.0113C126.162 32.3252 125.508 32.7851 124.966 33.3627C124.424 33.9403 124.007 34.6232 123.738 35.3693C123.47 36.1153 123.357 36.9087 123.407 37.7003C123.389 38.5107 123.534 39.3164 123.834 40.0692C124.134 40.8219 124.581 41.5064 125.151 42.0816C125.72 42.6568 126.399 43.111 127.146 43.4171C127.894 43.7231 128.696 43.8747 129.504 43.8628C130.515 43.8683 131.511 43.6221 132.403 43.1464C133.296 42.6707 134.057 41.9802 134.619 41.1368L132.524 39.6868C132.211 40.21 131.768 40.6427 131.239 40.9426C130.71 41.2425 130.112 41.3994 129.504 41.3978C128.878 41.4218 128.259 41.2562 127.729 40.9226C127.198 40.589 126.779 40.1028 126.527 39.5273L134.749 36.1198L134.445 35.4673ZM126.065 37.5263C126.036 37.0778 126.096 36.628 126.242 36.2031C126.388 35.7782 126.617 35.3869 126.916 35.052C127.215 34.7171 127.577 34.4454 127.982 34.2528C128.386 34.0602 128.825 33.9506 129.273 33.9303C129.739 33.8995 130.204 34.0067 130.609 34.2388C131.015 34.4708 131.344 34.8173 131.556 35.2353L126.065 37.5263ZM119.39 43.5003H122.092V25.3753H119.39V43.5003ZM114.968 32.9153H114.867C114.46 32.4584 113.961 32.0931 113.403 31.8432C112.846 31.5933 112.242 31.4645 111.631 31.4653C110.052 31.5422 108.563 32.2257 107.472 33.3744C106.382 34.523 105.774 36.0486 105.774 37.6351C105.774 39.2215 106.382 40.7471 107.472 41.8958C108.563 43.0444 110.052 43.728 111.631 43.8048C112.243 43.8151 112.85 43.6907 113.409 43.4402C113.969 43.1896 114.466 42.8192 114.867 42.3548H114.954V43.2393C114.954 45.6028 113.697 46.8643 111.674 46.8643C111 46.8485 110.347 46.6318 109.796 46.2419C109.245 45.852 108.823 45.3065 108.582 44.6748L106.227 45.6608C106.67 46.743 107.426 47.6677 108.396 48.3161C109.367 48.9646 110.508 49.3073 111.674 49.3003C114.838 49.3003 117.454 47.4298 117.454 42.8768V31.9003H114.968V32.9153ZM111.876 41.4413C110.944 41.3589 110.077 40.9291 109.445 40.2366C108.813 39.5442 108.463 38.6393 108.463 37.7003C108.463 36.7614 108.813 35.8565 109.445 35.164C110.077 34.4716 110.944 34.0417 111.876 33.9593C112.339 33.9831 112.791 34.0995 113.208 34.3016C113.624 34.5037 113.997 34.7874 114.302 35.136C114.608 35.4846 114.841 35.8911 114.988 36.3315C115.134 36.7719 115.192 37.2373 115.156 37.7003C115.196 38.1653 115.141 38.6335 114.995 39.0766C114.849 39.5197 114.615 39.9284 114.307 40.2781C113.999 40.6278 113.623 40.9112 113.203 41.1111C112.783 41.3111 112.327 41.4234 111.862 41.4413H111.876ZM147.102 25.3753H140.644V43.5003H143.346V36.6273H147.117C147.887 36.6828 148.66 36.5786 149.388 36.321C150.116 36.0634 150.784 35.658 151.349 35.1302C151.914 34.6023 152.365 33.9633 152.673 33.2529C152.981 32.5426 153.14 31.7761 153.14 31.0013C153.14 30.2265 152.981 29.4601 152.673 28.7497C152.365 28.0393 151.914 27.4003 151.349 26.8725C150.784 26.3446 150.116 25.9392 149.388 25.6817C148.66 25.4241 147.887 25.3198 147.117 25.3753H147.102ZM147.102 34.0753H143.331V27.8983H147.16C147.982 27.8983 148.77 28.226 149.352 28.8093C149.933 29.3926 150.259 30.1837 150.259 31.0086C150.259 31.8335 149.933 32.6246 149.352 33.2078C148.77 33.7911 147.982 34.1188 147.16 34.1188L147.102 34.0753ZM163.762 31.4653C162.778 31.4063 161.799 31.637 160.944 32.129C160.089 32.621 159.396 33.353 158.95 34.2348L161.349 35.2353C161.585 34.7979 161.943 34.439 162.38 34.2021C162.816 33.9653 163.311 33.8608 163.805 33.9013C164.148 33.8611 164.496 33.8899 164.827 33.9859C165.159 34.0819 165.469 34.2433 165.738 34.4606C166.007 34.6779 166.23 34.9468 166.394 35.2516C166.559 35.5564 166.661 35.891 166.695 36.2358V36.4243C165.827 35.9632 164.859 35.7241 163.877 35.7283C161.291 35.7283 158.676 37.1783 158.676 39.8028C158.701 40.3624 158.838 40.9112 159.079 41.4167C159.319 41.9223 159.659 42.3743 160.076 42.746C160.494 43.1178 160.981 43.4017 161.51 43.5811C162.039 43.7605 162.598 43.8316 163.155 43.7903C163.835 43.8394 164.516 43.7037 165.127 43.3975C165.737 43.0914 166.253 42.626 166.623 42.0503H166.709V43.5003H169.31V36.5258C169.31 33.3503 166.912 31.5088 163.834 31.5088L163.762 31.4653ZM163.429 41.3978C162.548 41.3978 161.32 40.9483 161.32 39.8608C161.32 38.4108 162.852 37.9323 164.21 37.9323C165.068 37.9111 165.916 38.1214 166.666 38.5413C166.576 39.3263 166.206 40.0522 165.624 40.5851C165.043 41.118 164.289 41.4221 163.502 41.4413L163.429 41.3978ZM178.788 31.9003L175.696 39.7593H175.61L172.402 31.9003H169.512L174.324 42.8913L171.579 48.9958H174.396L181.794 31.9003H178.788ZM154.5 43.5003H157.202V25.3753H154.5V43.5003Z" fill="white"/>
<path d="M15.0848 10.9335C14.6139 11.5006 14.3762 12.2266 14.4202 12.9635V45.0375C14.3762 45.7744 14.6139 46.5004 15.0848 47.0675L15.1859 47.169L33.0879 29.218V28.7975L15.1859 10.832L15.0848 10.9335Z" fill="url(#paint0_linear_132_3572)"/>
<path d="M39.0114 35.2059L33.0874 29.2174V28.7969L39.0114 22.7939L39.1414 22.8664L46.2357 26.9119C48.2585 28.0574 48.2585 29.9424 46.2357 31.1024L39.1703 35.1334L39.0114 35.2059Z" fill="url(#paint1_linear_132_3572)"/>
<path d="M39.1847 35.119L33.0874 29L15.0843 47.067C15.4966 47.4307 16.0226 47.6385 16.5713 47.6544C17.1201 47.6703 17.6571 47.4933 18.0896 47.154L39.1992 35.119" fill="url(#paint2_linear_132_3572)"/>
<path d="M39.1848 22.8811L18.0752 10.8461C17.6427 10.5068 17.1056 10.3298 16.5569 10.3457C16.0081 10.3616 15.4822 10.5694 15.0699 10.9331L33.0874 29.0001L39.1848 22.8811Z" fill="url(#paint3_linear_132_3572)"/>
<path opacity="0.2" d="M39.0114 34.9883L18.0752 46.9508C17.658 47.2638 17.1512 47.4329 16.6303 47.4329C16.1094 47.4329 15.6026 47.2638 15.1854 46.9508L15.0843 47.0523L15.1854 47.1538C15.6016 47.469 16.1089 47.6395 16.6303 47.6395C17.1517 47.6395 17.659 47.469 18.0752 47.1538L39.1847 35.1188L39.0114 34.9883Z" fill="black"/>
<path opacity="0.12" d="M15.0848 46.864C14.6139 46.2969 14.3762 45.5709 14.4202 44.834V45.0515C14.3762 45.7884 14.6139 46.5144 15.0848 47.0815L15.1859 46.98L15.0848 46.864ZM46.2362 30.885L39.0119 34.9885L39.1419 35.119L46.2362 31.088C46.6388 30.8982 46.9843 30.6053 47.238 30.2387C47.4917 29.8721 47.6445 29.4448 47.6811 29C47.5998 29.4041 47.4274 29.7842 47.1769 30.111C46.9264 30.4377 46.6046 30.7025 46.2362 30.885Z" fill="black"/>
<path opacity="0.25" d="M18.0752 11.0485L46.2358 27.1145C46.6042 27.297 46.926 27.5618 47.1765 27.8886C47.4269 28.2154 47.5994 28.5954 47.6807 28.9995C47.6441 28.5547 47.4912 28.1275 47.2376 27.7609C46.9839 27.3943 46.6383 27.1013 46.2358 26.9115L18.0752 10.8455C16.0524 9.70004 14.4053 10.657 14.4053 12.977V13.1945C14.4486 10.86 16.0669 9.90304 18.0752 11.0485Z" fill="white"/>
</g>
<defs>
<linearGradient id="paint0_linear_132_3572" x1="31.4985" y1="12.63" x2="7.16769" y2="36.8748" gradientUnits="userSpaceOnUse">
<stop stop-color="#00A0FF"/>
<stop offset="0.01" stop-color="#00A1FF"/>
<stop offset="0.26" stop-color="#00BEFF"/>
<stop offset="0.51" stop-color="#00D2FF"/>
<stop offset="0.76" stop-color="#00DFFF"/>
<stop offset="1" stop-color="#00E3FF"/>
</linearGradient>
<linearGradient id="paint1_linear_132_3572" x1="48.8798" y1="28.9999" x2="13.9284" y2="28.9999" gradientUnits="userSpaceOnUse">
<stop stop-color="#FFE000"/>
<stop offset="0.41" stop-color="#FFBD00"/>
<stop offset="0.78" stop-color="#FFA500"/>
<stop offset="1" stop-color="#FF9C00"/>
</linearGradient>
<linearGradient id="paint2_linear_132_3572" x1="35.876" y1="32.335" x2="2.87426" y2="65.2056" gradientUnits="userSpaceOnUse">
<stop stop-color="#FF3A44"/>
<stop offset="1" stop-color="#C31162"/>
</linearGradient>
<linearGradient id="paint3_linear_132_3572" x1="10.5474" y1="0.261094" x2="25.2793" y2="14.9409" gradientUnits="userSpaceOnUse">
<stop stop-color="#32A071"/>
<stop offset="0.07" stop-color="#2DA771"/>
<stop offset="0.48" stop-color="#15CF74"/>
<stop offset="0.8" stop-color="#06E775"/>
<stop offset="1" stop-color="#00F076"/>
</linearGradient>
<clipPath id="clip0_132_3572">
<rect width="196" height="58" fill="white"/>
</clipPath>
</defs>
</svg>
