<svg width="25" height="25" viewBox="0 0 25 25" fill="none" xmlns="http://www.w3.org/2000/svg">
<path d="M20.6964 3.55381C15.9585 -1.18441 8.29023 -1.18479 3.55195 3.55381C-0.443474 7.54943 -1.03608 13.5696 1.61195 18.1686L0.032812 23.283C-0.13708 23.8333 0.386758 24.348 0.934326 24.1671L5.89398 22.5288C10.4584 25.2676 16.6008 24.7952 20.6964 20.6993C25.4343 15.9611 25.4347 8.29237 20.6964 3.55381V3.55381ZM6.44154 8.62206C6.83385 8.62206 7.1519 8.94011 7.1519 9.33242C7.1519 9.72473 6.83385 10.0428 6.44154 10.0428C6.04923 10.0428 5.73119 9.72473 5.73119 9.33242C5.73119 8.94011 6.04923 8.62206 6.44154 8.62206ZM14.9655 15.6784H6.44154C6.04923 15.6784 5.73119 15.3604 5.73119 14.9681C5.73119 14.5758 6.04923 14.2577 6.44154 14.2577H14.9655C15.3578 14.2577 15.6759 14.5758 15.6759 14.9681C15.6758 15.3604 15.3578 15.6784 14.9655 15.6784ZM17.8068 15.6784C17.4145 15.6784 17.0965 15.3604 17.0965 14.9681C17.0965 14.5758 17.4146 14.2577 17.8068 14.2577C18.1991 14.2577 18.5172 14.5758 18.5172 14.9681C18.5172 15.3604 18.1992 15.6784 17.8068 15.6784ZM17.8068 12.8369H6.44154C6.04923 12.8369 5.73119 12.5189 5.73119 12.1266C5.73119 11.7343 6.04923 11.4162 6.44154 11.4162H17.8068C18.1992 11.4162 18.5172 11.7343 18.5172 12.1266C18.5172 12.5189 18.1992 12.8369 17.8068 12.8369ZM17.8068 9.99546H9.28287C8.89056 9.99546 8.57251 9.67741 8.57251 9.2851C8.57251 8.89279 8.89056 8.57475 9.28287 8.57475H17.8068C18.1992 8.57475 18.5172 8.89279 18.5172 9.2851C18.5172 9.67741 18.1992 9.99546 17.8068 9.99546Z" fill="white"/>
</svg>
