<svg width="36" height="36" viewBox="0 0 36 36" fill="none" xmlns="http://www.w3.org/2000/svg">
<path d="M18.2088 35.9229L29.8755 35.9232C30.5195 35.9233 31.0422 35.4017 31.0422 34.7566L31.0424 27.8533C31.0435 27.8533 31.0904 27.0691 31.1393 26.8022C31.1953 26.5048 31.2188 26.3822 31.4183 25.8689C31.8709 24.7548 33.0914 21.7517 33.6783 20.6726C34.6244 18.9157 35.7095 16.5461 35.7095 13.7567C35.7098 6.68068 29.9524 0.923154 22.8766 0.922926C15.8008 0.922697 10.0431 6.68005 10.0429 13.7559C10.0428 14.4746 10.1035 15.1931 10.2212 15.9001L7.85384 20.1933C7.65435 20.555 7.66137 20.9948 7.87125 21.3495C8.08139 21.7042 8.4629 21.9225 8.8759 21.9225L10.0426 21.9225L10.0425 23.0892C10.0425 23.6246 10.4076 24.0903 10.9269 24.221L14.4617 25.1055C14.5643 25.131 14.7091 25.3178 14.7091 25.4227C14.7091 25.5277 14.5643 25.7144 14.463 25.7389C14.4198 25.7506 14.3779 25.7633 14.337 25.7784L11.9687 26.6628C11.5112 26.8331 11.2091 27.2695 11.209 27.7559L11.209 30.0893C11.2089 30.7343 11.7305 31.256 12.3756 31.256L17.0423 31.2561L17.0422 34.7561C17.0421 35.4012 17.5648 35.9228 18.2088 35.9228L18.2088 35.9229Z" fill="#3E36B0"/>
<path d="M0.709596 21.9225C0.709575 22.5667 1.23195 23.0891 1.87623 23.0892C2.5205 23.0892 3.04291 22.5668 3.04293 21.9225C3.04295 21.2783 2.52058 20.7558 1.8763 20.7558C1.23203 20.7558 0.709617 21.2782 0.709596 21.9225Z" fill="#3E36B0"/>
<path d="M4.20911 23.089C4.20909 23.7332 4.73146 24.2556 5.37574 24.2557C6.02001 24.2557 6.54242 23.7333 6.54244 23.089C6.54246 22.4448 6.02009 21.9223 5.37581 21.9223C4.73154 21.9223 4.20913 22.4447 4.20911 23.089Z" fill="#3E36B0"/>
<path d="M4.20862 27.7559C4.2086 28.4002 4.73098 28.9226 5.37525 28.9227C6.01952 28.9227 6.54193 28.4003 6.54195 27.756C6.54198 27.1117 6.0196 26.5893 5.37532 26.5893C4.73105 26.5893 4.20864 27.1117 4.20862 27.7559Z" fill="#3E36B0"/>
<path d="M7.70862 25.4225C7.7086 26.0667 8.23098 26.5891 8.87525 26.5892C9.51952 26.5892 10.0419 26.0668 10.042 25.4225C10.042 24.7783 9.5196 24.2558 8.87532 24.2558C8.23105 24.2558 7.70864 24.7782 7.70862 25.4225Z" fill="#3E36B0"/>
<path d="M0.709108 25.4225C0.709087 26.0667 1.23146 26.5891 1.87574 26.5892C2.52001 26.5892 3.04242 26.0668 3.04244 25.4225C3.04246 24.7783 2.52009 24.2558 1.87581 24.2558C1.23154 24.2558 0.709129 24.7782 0.709108 25.4225Z" fill="#3E36B0"/>
<path d="M0.709108 28.922C0.709087 29.5662 1.23146 30.0886 1.87574 30.0887C2.52001 30.0887 3.04242 29.5663 3.04244 28.922C3.04246 28.2778 2.52009 27.7554 1.87581 27.7553C1.23154 27.7553 0.709129 28.2777 0.709108 28.922Z" fill="#3E36B0"/>
</svg>
