<svg width="56" height="57" viewBox="0 0 56 57" fill="none" xmlns="http://www.w3.org/2000/svg">
<circle cx="27.6677" cy="28.5432" r="27.242" stroke="#128983" stroke-opacity="0.6" stroke-width="0.819307"/>
<circle cx="27.6679" cy="28.5434" r="23.5551" fill="#128983" fill-opacity="0.25"/>
<path d="M19.1715 21.8103C20.4169 21.8103 21.4929 22.0452 22.3996 22.5149C23.3172 22.9737 24.0164 23.6346 24.497 24.4976C24.9886 25.3606 25.2344 26.3766 25.2344 27.5455C25.2344 28.7143 24.9886 29.7303 24.497 30.5933C24.0164 31.4454 23.3172 32.1008 22.3996 32.5596C21.4929 33.0075 20.4169 33.2314 19.1715 33.2314H15.6157V21.8103H19.1715ZM19.1715 32.0025C20.6463 32.0025 21.7715 31.6147 22.5471 30.8391C23.3227 30.0525 23.7105 28.9547 23.7105 27.5455C23.7105 26.1253 23.3172 25.0165 22.5307 24.2191C21.7551 23.4216 20.6354 23.0229 19.1715 23.0229H17.1069V32.0025H19.1715ZM41.5555 21.8103L38.2455 33.2314H36.5741L33.9196 24.0388L31.1667 33.2314L29.5117 33.2478L26.3164 21.8103H27.9059L30.3965 31.4945L33.1494 21.8103H34.8208L37.4426 31.4617L39.9497 21.8103H41.5555Z" fill="black"/>
</svg>
