<svg width="36" height="36" viewBox="0 0 36 36" fill="none" xmlns="http://www.w3.org/2000/svg">
<path d="M11.6501 12.7736L11.6501 12.4876C11.6503 5.98699 16.9194 0.718802 23.4207 0.719011C29.9226 0.719221 35.1907 5.98663 35.1905 12.4896C35.1905 15.0658 34.5959 16.9907 33.2911 19.6004C33.205 19.773 32.7549 20.659 32.6352 20.9002C32.4043 21.3663 32.2342 21.7357 32.0934 22.0848C31.7661 22.895 31.6081 23.5786 31.6081 24.2602C31.608 25.6754 31.9604 27.1297 32.5512 28.5327C32.7597 29.0282 32.983 29.4804 33.2051 29.8785C33.3354 30.1117 33.4333 30.271 33.4828 30.3453C33.8537 30.9016 33.6005 31.6583 32.9693 31.8791L22.7339 35.461C22.1948 35.6498 21.6057 35.3604 21.4248 34.8186L19.6112 29.3773L15.7398 29.3772C13.4804 29.3771 11.6492 27.5463 11.6492 25.2867L11.6494 21.7009L10.1172 21.7009C8.80322 21.7008 8.03842 20.5119 8.59555 19.3186L11.6501 12.7736ZM25.2666 10.4423C26.9624 10.4423 28.3373 9.06773 28.3374 7.37195C28.3374 6.24905 27.5267 5.03286 25.971 3.55844C25.5761 3.18436 24.9576 3.18434 24.5629 3.55839C23.0071 5.03277 22.1963 6.24885 22.1963 7.37175C22.1962 9.06753 23.5708 10.4422 25.2666 10.4423ZM28.8487 17.6073C30.5445 17.6073 31.9192 16.2325 31.9192 14.5367C31.9193 13.4138 31.1088 12.1979 29.5529 10.7235C29.1582 10.3491 28.5397 10.3491 28.145 10.7234C26.589 12.1978 25.7784 13.4136 25.7784 14.5365C25.7783 16.2323 27.1529 17.6072 28.8487 17.6073ZM1.21405 9.26887L1.21423 3.78874C1.21428 2.09296 2.58921 0.718376 4.28498 0.718431C5.98076 0.718486 7.35535 2.09316 7.3553 3.78894L7.35512 9.26907C8.00683 10.0073 8.37872 10.9632 8.37869 11.9771C8.37861 14.2382 6.54563 16.0711 4.28449 16.071C2.02335 16.071 0.190482 14.238 0.190555 11.9768C0.190587 10.9629 0.562255 10.007 1.21405 9.26887ZM3.26104 9.6884C3.26103 9.97944 3.13722 10.2569 2.92021 10.451C2.48812 10.8377 2.23761 11.3858 2.23759 11.9769C2.23756 13.1076 3.15387 14.0239 4.28453 14.024C5.41495 14.024 6.33156 13.1077 6.3316 11.977C6.33162 11.386 6.08113 10.8379 5.64909 10.4511C5.43208 10.2569 5.30805 9.97948 5.30806 9.68846L5.30825 3.78887C5.30827 3.22377 4.84999 2.76545 4.28488 2.76543C3.71953 2.76541 3.2612 3.22369 3.26119 3.78881L3.26104 9.6884ZM24.5831 6.60674C24.7538 6.3509 24.9817 6.06642 25.2667 5.75574C25.5519 6.06645 25.7798 6.35095 25.9505 6.60679C26.1893 6.96508 26.2903 7.22797 26.2903 7.37188C26.2903 7.93723 25.832 8.39552 25.2666 8.39551C24.7015 8.39549 24.2432 7.93718 24.2432 7.37182C24.2432 7.22787 24.3442 6.96499 24.5831 6.60674L24.5831 6.60674ZM28.1652 13.7711C28.3359 13.5153 28.5638 13.2308 28.8488 12.9201C29.1338 13.2309 29.3619 13.5154 29.5323 13.7712C29.7714 14.1297 29.8724 14.3926 29.8724 14.5363C29.8724 15.1016 29.4141 15.5599 28.8487 15.5599C28.2833 15.5599 27.8253 15.1016 27.8253 14.5362C27.8253 14.3925 27.9261 14.1296 28.1652 13.7711L28.1652 13.7711Z" fill="#3E36B0"/>
</svg>
