<svg width="36" height="36" viewBox="0 0 36 36" fill="none" xmlns="http://www.w3.org/2000/svg">
<path d="M11.91 18.4253L16.0656 18.4254C16.4303 18.4254 16.7946 18.0608 16.7946 17.6965L16.7948 13.0305C16.7949 10.7705 18.6176 8.87496 20.8049 8.87503C21.1695 8.87504 21.5339 8.5834 21.5339 8.14607L21.534 4.42757C21.534 3.99021 21.1694 3.69856 20.805 3.69855L20.149 3.69853C15.2641 3.69837 11.1815 7.78114 11.1813 12.8114L11.1812 17.696C11.1812 18.0606 11.5458 18.4253 11.9102 18.4253L11.91 18.4253Z" fill="#3E36B0"/>
<path d="M11.7645 1.5837C11.7645 1.21907 11.4729 0.854706 11.0355 0.854692L7.17136 0.854567C6.95269 0.85456 6.73401 0.92753 6.58831 1.07323C6.51533 1.21918 6.44235 1.36488 6.44234 1.58355L6.44214 7.78044C5.42144 8.65534 4.83808 10.0404 4.83804 11.4986L4.83803 11.6443C6.07738 10.9884 7.68138 10.4778 9.577 10.1135C9.79567 10.1135 10.0144 10.0405 10.1603 10.0405C10.525 8.72823 11.0353 7.56189 11.8374 6.54098L11.8373 1.58367L11.7645 1.5837Z" fill="#3E36B0"/>
<path d="M6.80595 32.2768L6.80602 30.0166C6.80603 29.7979 6.87902 29.5792 7.0977 29.4333L8.62875 28.2667L7.75402 21.9238C7.68106 21.4865 7.97273 21.1219 8.33735 21.1219C8.70199 21.0489 9.1393 21.3406 9.13929 21.778L10.0868 28.4853C10.1597 28.7769 10.0138 28.9956 9.7951 29.1413L8.26405 30.3813L8.26395 33.5163C10.0865 34.9743 12.0548 35.8494 13.8047 35.8494C14.1694 35.8494 14.4608 35.8495 14.7525 35.7765C15.6274 35.6308 16.3565 35.2662 17.1584 34.8289L15.7733 31.6209C15.7003 31.5479 15.7003 31.4022 15.7003 31.3293L15.7004 28.1214L13.3678 24.2574C13.1491 23.8927 13.2949 23.4554 13.5865 23.2367C13.9512 23.018 14.3885 23.1637 14.6072 23.4554L17.013 27.3924C17.086 27.5381 17.1587 27.611 17.1587 27.757L17.1586 31.0376L18.3251 33.808C21.3872 30.9648 23.0643 25.5698 22.0438 20.3935C21.5336 17.5502 20.2213 15.2172 18.3258 13.6861L18.3256 17.696C18.3256 18.8626 17.3049 19.8833 16.1383 19.8832L11.9097 19.8829C10.7431 19.8828 9.72244 18.8621 9.72248 17.6955L9.72263 12.8109C9.72265 12.3735 9.72266 11.936 9.79565 11.5716L9.72293 11.5716C3.01559 12.8837 0.0992537 16.5288 1.19265 22.3613C1.84881 25.9336 4.10869 29.6519 6.80617 32.2766L6.80595 32.2768Z" fill="#3E36B0"/>
<path d="M35.2393 22.6546L33.7814 22.6546L32.1776 16.4576C32.1046 16.093 31.813 15.8743 31.4486 15.8743C31.084 15.8743 30.7926 16.1659 30.7926 16.4576L29.3343 24.6958L28.4595 21.6338C28.3865 21.3422 28.1678 21.1235 27.8762 21.1235C27.5845 21.0505 27.2929 21.1965 27.1472 21.4881L25.6161 23.9667L24.231 19.3737C24.158 19.082 23.8664 18.8634 23.575 18.8633C23.4293 18.8633 23.2833 18.8633 23.2104 18.9363C23.356 19.3737 23.429 19.7383 23.502 20.1756C23.6476 21.1234 23.7936 22.0713 23.7935 23.019L24.7411 26.0083C24.8141 26.2999 25.0328 26.5186 25.3244 26.5186C25.6161 26.5916 25.9077 26.4456 26.0534 26.154L27.5115 23.6754L28.8236 28.1956C28.8966 28.4873 29.1882 28.706 29.5526 28.706L29.6256 28.706C29.9902 28.706 30.2816 28.4143 30.2816 28.1227L31.6671 20.1031L32.6147 23.6028C32.6877 23.8944 32.9793 24.1861 33.3437 24.1861L35.2393 24.1859C35.6767 24.1859 35.9683 23.8943 35.9683 23.4569C35.9683 22.9463 35.6767 22.6547 35.2394 22.6547L35.2393 22.6546Z" fill="#3E36B0"/>
</svg>
