<svg width="33" height="34" viewBox="0 0 33 34" fill="none" xmlns="http://www.w3.org/2000/svg">
<path fill-rule="evenodd" clip-rule="evenodd" d="M17.0679 0.118774V0.118164H17.4445V0.12215C21.5837 0.196607 25.3518 1.50105 28.1172 3.8422C30.9728 6.25973 32.7375 9.76606 32.7375 14.0944V17.2929C32.7375 17.3918 32.737 17.4902 32.7359 17.5881C32.6886 23.1059 30.9564 26.9724 28.1224 29.4602C25.3432 31.8999 21.5642 32.9608 17.4445 33.0213V33.0238H17.1787L17.0679 33.024H16.0645H16.0023V33.0246C15.9445 33.0246 15.8868 33.0244 15.8291 33.024H15.6255V33.0219C11.5059 32.9613 7.72661 31.9002 4.94735 29.4525C2.07368 26.9217 0.333374 22.9657 0.333374 17.2929V14.0944C0.333374 14.0268 0.333805 13.9593 0.334664 13.8921C0.388788 9.65675 2.1427 6.22196 4.95369 3.8422C7.80258 1.43035 11.7157 0.118774 16.0023 0.118774V0.118867L16.0651 0.118774H17.0679ZM5.51532 4.49727C8.09813 2.31689 11.6531 1.06717 15.6255 0.98131V1.0387H16.0645H17.0679C21.1852 1.0387 24.8922 2.2985 27.5623 4.55902C30.2258 6.81386 31.8791 10.0809 31.8791 14.1565V17.3551C31.8791 17.4311 31.8788 17.5068 31.8781 17.5822C31.8201 22.914 30.1551 26.5195 27.5497 28.8001C24.8877 31.1303 21.1785 32.135 17.009 32.1041L17.0058 32.1041H16.0023C11.8639 32.1041 8.16916 31.0845 5.51376 28.7535C2.86843 26.4313 1.19117 22.7516 1.19117 17.2929V14.0944C1.19117 13.8397 1.19763 13.5881 1.21039 13.3398C1.4018 9.61443 3.01136 6.6111 5.51532 4.49727ZM22.0853 10.7698C22.7752 11.3969 23.1515 12.2123 23.2142 13.0903C23.3397 14.1565 23.4651 19.2365 23.1515 20.4281C22.7125 21.9333 21.709 22.874 20.1411 23.1249C18.9495 23.313 13.6813 23.313 12.6152 23.0622C11.0473 22.6859 10.1065 21.6824 9.85565 20.1145C9.6675 18.9856 9.60478 13.592 9.91836 12.4631C10.3574 10.9579 11.3608 10.0799 12.866 9.82903C14.2458 9.57816 18.0088 9.64088 19.5767 9.76631C20.5174 9.82903 21.3955 10.0799 22.0853 10.7698ZM19.7648 21.9333C21.0192 21.8079 21.7718 21.0553 21.9599 19.8636C22.1481 18.672 22.1481 14.3446 22.0226 13.153C21.8972 11.8987 21.1446 11.1461 19.953 10.9579C18.7614 10.8325 14.4339 10.8325 13.2423 10.9579C12.0507 11.0834 11.2981 11.836 11.11 13.0276C10.9218 14.2819 10.9845 18.9856 11.11 19.9264C11.2354 20.9298 11.7999 21.557 12.7406 21.8079C13.7441 22.1214 18.6987 22.0587 19.7648 21.9333ZM12.9915 16.477C12.9915 14.5328 14.5594 12.9648 16.5036 12.9648C18.4478 12.9648 20.0157 14.5328 20.0157 16.477C20.0157 18.4212 18.4478 19.9891 16.5036 19.9891C14.5594 19.9891 12.9915 18.4212 12.9915 16.477ZM14.2458 16.477C14.2458 17.7313 15.2493 18.7348 16.5036 18.7348C17.7579 18.7348 18.7614 17.7313 18.7614 16.477C18.7614 15.2226 17.7579 14.2192 16.5036 14.2192C15.2493 14.2192 14.2458 15.2226 14.2458 16.477ZM20.1411 13.6547C20.5801 13.6547 20.9564 13.2784 20.9564 12.8394C20.9564 12.4004 20.6429 12.0241 20.1411 12.0241C19.7021 12.0241 19.3258 12.4004 19.3258 12.8394C19.3258 13.2784 19.7021 13.6547 20.1411 13.6547Z" fill="white"/>
</svg>
