<svg width="119" height="17" viewBox="0 0 119 17" fill="none" xmlns="http://www.w3.org/2000/svg">
<path d="M0.65 16V0.599999H3.07L7.998 12.392L12.904 0.599999H15.324V16H12.904V5.814L8.944 16H7.03L3.07 5.704V16H0.65ZM29.3464 10.346C29.3464 10.61 29.3244 11.05 29.2804 11.666H21.6684C21.6978 12.4727 21.9618 13.096 22.4604 13.536C22.9591 13.9613 23.6484 14.174 24.5284 14.174C25.6578 14.174 26.4204 13.7853 26.8164 13.008H29.2364C29.0751 13.9613 28.5544 14.746 27.6744 15.362C26.8091 15.9633 25.7604 16.264 24.5284 16.264C22.9151 16.264 21.6391 15.78 20.7004 14.812C19.7618 13.844 19.2924 12.5313 19.2924 10.874C19.2924 9.23133 19.7544 7.926 20.6784 6.958C21.6171 5.97533 22.8711 5.484 24.4404 5.484C25.9071 5.484 27.0878 5.93867 27.9824 6.848C28.8918 7.74267 29.3464 8.90867 29.3464 10.346ZM21.6684 9.84H26.9924C26.9778 9.048 26.7431 8.43933 26.2884 8.014C25.8484 7.58867 25.2178 7.376 24.3964 7.376C23.5604 7.376 22.9004 7.60333 22.4164 8.058C21.9324 8.51267 21.6831 9.10667 21.6684 9.84ZM40.9648 0.599999H43.3628V16H40.9648V14.614C40.6715 15.1127 40.2095 15.516 39.5788 15.824C38.9628 16.1173 38.3322 16.264 37.6868 16.264C36.0882 16.264 34.8488 15.758 33.9688 14.746C33.0888 13.734 32.6488 12.4433 32.6488 10.874C32.6488 9.31933 33.1108 8.036 34.0348 7.024C34.9588 5.99733 36.1982 5.484 37.7528 5.484C38.4422 5.484 39.0728 5.63067 39.6448 5.924C40.2168 6.21733 40.6568 6.62067 40.9648 7.134V0.599999ZM38.0388 14.13C39.0215 14.13 39.7695 13.822 40.2828 13.206C40.8108 12.59 41.0748 11.8127 41.0748 10.874C41.0748 9.93533 40.8108 9.158 40.2828 8.542C39.7695 7.926 39.0215 7.618 38.0388 7.618C37.1148 7.618 36.3815 7.926 35.8388 8.542C35.3108 9.14333 35.0468 9.92067 35.0468 10.874C35.0468 11.8273 35.3108 12.612 35.8388 13.228C36.3815 13.8293 37.1148 14.13 38.0388 14.13ZM48.0884 16V0.599999H50.6184V7.222H56.9764V0.599999H59.5064V16H56.9764V9.488H50.6184V16H48.0884ZM73.5192 10.346C73.5192 10.61 73.4972 11.05 73.4532 11.666H65.8412C65.8705 12.4727 66.1345 13.096 66.6332 13.536C67.1318 13.9613 67.8212 14.174 68.7012 14.174C69.8305 14.174 70.5932 13.7853 70.9892 13.008H73.4092C73.2478 13.9613 72.7272 14.746 71.8472 15.362C70.9818 15.9633 69.9332 16.264 68.7012 16.264C67.0878 16.264 65.8118 15.78 64.8732 14.812C63.9345 13.844 63.4652 12.5313 63.4652 10.874C63.4652 9.23133 63.9272 7.926 64.8512 6.958C65.7898 5.97533 67.0438 5.484 68.6132 5.484C70.0798 5.484 71.2605 5.93867 72.1552 6.848C73.0645 7.74267 73.5192 8.90867 73.5192 10.346ZM65.8412 9.84H71.1652C71.1505 9.048 70.9158 8.43933 70.4612 8.014C70.0212 7.58867 69.3905 7.376 68.5692 7.376C67.7332 7.376 67.0732 7.60333 66.5892 8.058C66.1052 8.51267 65.8558 9.10667 65.8412 9.84ZM81.8596 16.264C80.2609 16.264 79.0216 15.758 78.1416 14.746C77.2616 13.734 76.8216 12.4433 76.8216 10.874C76.8216 9.31933 77.2836 8.036 78.2076 7.024C79.1316 5.99733 80.3709 5.484 81.9256 5.484C82.6149 5.484 83.2456 5.63067 83.8176 5.924C84.3896 6.21733 84.8296 6.62067 85.1376 7.134V5.748H87.5356V16H85.1376V14.614C84.8442 15.1127 84.3822 15.516 83.7516 15.824C83.1356 16.1173 82.5049 16.264 81.8596 16.264ZM82.2116 14.13C83.1942 14.13 83.9422 13.822 84.4556 13.206C84.9836 12.59 85.2476 11.8127 85.2476 10.874C85.2476 9.93533 84.9836 9.158 84.4556 8.542C83.9422 7.926 83.1942 7.618 82.2116 7.618C81.2876 7.618 80.5542 7.926 80.0116 8.542C79.4836 9.14333 79.2196 9.92067 79.2196 10.874C79.2196 11.8273 79.4836 12.612 80.0116 13.228C80.5542 13.8293 81.2876 14.13 82.2116 14.13ZM92.1511 16V0.599999H94.5491V16H92.1511ZM103.812 13.976C104.296 13.976 104.699 13.9467 105.022 13.888V16C104.523 16.088 103.929 16.132 103.24 16.132C102.844 16.132 102.499 16.1027 102.206 16.044C101.912 15.9853 101.568 15.8533 101.172 15.648C100.776 15.428 100.468 15.054 100.248 14.526C100.028 13.998 99.9176 13.3307 99.9176 12.524V7.75H98.1796V5.748H99.9176V2.646H102.316V5.748H104.67V7.75H102.316V11.974C102.316 12.7953 102.433 13.338 102.668 13.602C102.902 13.8513 103.284 13.976 103.812 13.976ZM114.508 5.484C117.002 5.484 118.248 6.84067 118.248 9.554V16H115.85V10.654C115.85 9.53933 115.682 8.74 115.344 8.256C115.007 7.772 114.428 7.53 113.606 7.53C112.829 7.53 112.228 7.77933 111.802 8.278C111.377 8.762 111.164 9.45867 111.164 10.368V16H108.766V0.599999H111.164V7.178C111.824 6.04867 112.939 5.484 114.508 5.484Z" fill="#0957DF"/>
</svg>
