<svg width="97" height="14" viewBox="0 0 97 14" fill="none" xmlns="http://www.w3.org/2000/svg">
<path d="M0.35 13.3848V0.784765H2.33L6.362 10.4328L10.376 0.784765H12.356V13.3848H10.376V5.05077L7.136 13.3848H5.57L2.33 4.96077V13.3848H0.35ZM23.8289 8.75877C23.8289 8.97477 23.8109 9.33477 23.7749 9.83877H17.5469C17.5709 10.4988 17.7869 11.0088 18.1949 11.3688C18.6029 11.7168 19.1669 11.8908 19.8869 11.8908C20.8109 11.8908 21.4349 11.5728 21.7589 10.9368H23.7389C23.6069 11.7168 23.1809 12.3588 22.4609 12.8628C21.7529 13.3548 20.8949 13.6008 19.8869 13.6008C18.5669 13.6008 17.5229 13.2048 16.7549 12.4128C15.9869 11.6208 15.6029 10.5468 15.6029 9.19077C15.6029 7.84677 15.9809 6.77877 16.7369 5.98677C17.5049 5.18277 18.5309 4.78077 19.8149 4.78077C21.0149 4.78077 21.9809 5.15277 22.7129 5.89677C23.4569 6.62877 23.8289 7.58277 23.8289 8.75877ZM17.5469 8.34477H21.9029C21.8909 7.69677 21.6989 7.19877 21.3269 6.85077C20.9669 6.50277 20.4509 6.32877 19.7789 6.32877C19.0949 6.32877 18.5549 6.51477 18.1589 6.88677C17.7629 7.25877 17.5589 7.74477 17.5469 8.34477ZM33.3349 0.784765H35.2969V13.3848H33.3349V12.2508C33.0949 12.6588 32.7169 12.9888 32.2009 13.2408C31.6969 13.4808 31.1809 13.6008 30.6529 13.6008C29.3449 13.6008 28.3309 13.1868 27.6109 12.3588C26.8909 11.5308 26.5309 10.4748 26.5309 9.19077C26.5309 7.91877 26.9089 6.86877 27.6649 6.04077C28.4209 5.20077 29.4349 4.78077 30.7069 4.78077C31.2709 4.78077 31.7869 4.90077 32.2549 5.14077C32.7229 5.38077 33.0829 5.71077 33.3349 6.13077V0.784765ZM30.9409 11.8548C31.7449 11.8548 32.3569 11.6028 32.7769 11.0988C33.2089 10.5948 33.4249 9.95877 33.4249 9.19077C33.4249 8.42277 33.2089 7.78677 32.7769 7.28277C32.3569 6.77877 31.7449 6.52677 30.9409 6.52677C30.1849 6.52677 29.5849 6.77877 29.1409 7.28277C28.7089 7.77477 28.4929 8.41077 28.4929 9.19077C28.4929 9.97077 28.7089 10.6128 29.1409 11.1168C29.5849 11.6088 30.1849 11.8548 30.9409 11.8548ZM39.1632 13.3848V0.784765H41.2332V6.20277H46.4352V0.784765H48.5052V13.3848H46.4352V8.05677H41.2332V13.3848H39.1632ZM59.9702 8.75877C59.9702 8.97477 59.9522 9.33477 59.9162 9.83877H53.6882C53.7122 10.4988 53.9282 11.0088 54.3362 11.3688C54.7442 11.7168 55.3082 11.8908 56.0282 11.8908C56.9522 11.8908 57.5762 11.5728 57.9002 10.9368H59.8802C59.7482 11.7168 59.3222 12.3588 58.6022 12.8628C57.8942 13.3548 57.0362 13.6008 56.0282 13.6008C54.7082 13.6008 53.6642 13.2048 52.8962 12.4128C52.1282 11.6208 51.7442 10.5468 51.7442 9.19077C51.7442 7.84677 52.1222 6.77877 52.8782 5.98677C53.6462 5.18277 54.6722 4.78077 55.9562 4.78077C57.1562 4.78077 58.1222 5.15277 58.8542 5.89677C59.5982 6.62877 59.9702 7.58277 59.9702 8.75877ZM53.6882 8.34477H58.0442C58.0322 7.69677 57.8402 7.19877 57.4682 6.85077C57.1082 6.50277 56.5922 6.32877 55.9202 6.32877C55.2362 6.32877 54.6962 6.51477 54.3002 6.88677C53.9042 7.25877 53.7002 7.74477 53.6882 8.34477ZM66.7942 13.6008C65.4862 13.6008 64.4722 13.1868 63.7522 12.3588C63.0322 11.5308 62.6722 10.4748 62.6722 9.19077C62.6722 7.91877 63.0502 6.86877 63.8062 6.04077C64.5622 5.20077 65.5762 4.78077 66.8482 4.78077C67.4122 4.78077 67.9282 4.90077 68.3962 5.14077C68.8642 5.38077 69.2242 5.71077 69.4762 6.13077V4.99677H71.4382V13.3848H69.4762V12.2508C69.2362 12.6588 68.8582 12.9888 68.3422 13.2408C67.8382 13.4808 67.3222 13.6008 66.7942 13.6008ZM67.0822 11.8548C67.8862 11.8548 68.4982 11.6028 68.9182 11.0988C69.3502 10.5948 69.5662 9.95877 69.5662 9.19077C69.5662 8.42277 69.3502 7.78677 68.9182 7.28277C68.4982 6.77877 67.8862 6.52677 67.0822 6.52677C66.3262 6.52677 65.7262 6.77877 65.2822 7.28277C64.8502 7.77477 64.6342 8.41077 64.6342 9.19077C64.6342 9.97077 64.8502 10.6128 65.2822 11.1168C65.7262 11.6088 66.3262 11.8548 67.0822 11.8548ZM75.2145 13.3848V0.784765H77.1765V13.3848H75.2145ZM84.755 11.7288C85.151 11.7288 85.481 11.7048 85.745 11.6568V13.3848C85.337 13.4568 84.851 13.4928 84.287 13.4928C83.963 13.4928 83.681 13.4688 83.441 13.4208C83.201 13.3728 82.919 13.2648 82.595 13.0968C82.271 12.9168 82.019 12.6108 81.839 12.1788C81.659 11.7468 81.569 11.2008 81.569 10.5408V6.63477H80.147V4.99677H81.569V2.45876H83.531V4.99677H85.457V6.63477H83.531V10.0908C83.531 10.7628 83.627 11.2068 83.819 11.4228C84.011 11.6268 84.323 11.7288 84.755 11.7288ZM93.5068 4.78077C95.5468 4.78077 96.5668 5.89077 96.5668 8.11077V13.3848H94.6048V9.01077C94.6048 8.09877 94.4668 7.44477 94.1908 7.04877C93.9148 6.65277 93.4408 6.45477 92.7688 6.45477C92.1328 6.45477 91.6408 6.65877 91.2928 7.06677C90.9448 7.46277 90.7708 8.03277 90.7708 8.77677V13.3848H88.8088V0.784765H90.7708V6.16677C91.3108 5.24277 92.2228 4.78077 93.5068 4.78077Z" fill="white"/>
</svg>
