<svg width="18" height="22" viewBox="0 0 18 22" fill="none" xmlns="http://www.w3.org/2000/svg">
<path d="M17.2475 16.7441L15.8352 15.3319V9.85793C15.8352 6.49694 14.0398 3.68334 10.9087 2.93888V2.19443C10.9087 1.28575 10.1752 0.552246 9.26651 0.552246C8.35784 0.552246 7.62433 1.28575 7.62433 2.19443V2.93888C4.48229 3.68334 2.69779 6.48599 2.69779 9.85793V15.3319L1.28552 16.7441C0.595801 17.4339 1.07751 18.6162 2.05187 18.6162H16.4702C17.4555 18.6162 17.9372 17.4339 17.2475 16.7441ZM13.6457 16.4267H4.88736V9.85793C4.88736 7.14286 6.54049 4.93139 9.26651 4.93139C11.9925 4.93139 13.6457 7.14286 13.6457 9.85793V16.4267ZM9.26651 21.9006C10.4708 21.9006 11.4561 20.9153 11.4561 19.711H7.07694C7.07694 20.9153 8.0513 21.9006 9.26651 21.9006Z" fill="#A3AED0"/>
</svg>
