<svg width="18" height="18" viewBox="0 0 18 18" fill="none" xmlns="http://www.w3.org/2000/svg">
<path d="M15.1728 14.1162L17.673 16.6151C17.7896 16.7358 17.8541 16.8975 17.8526 17.0653C17.8512 17.2331 17.7839 17.3937 17.6652 17.5123C17.5465 17.631 17.386 17.6983 17.2181 17.6998C17.0503 17.7013 16.8886 17.6367 16.7679 17.5201L14.2677 15.02C12.6339 16.4198 10.5215 17.1323 8.37361 17.0082C6.22575 16.884 4.20946 15.9328 2.74783 14.3541C1.2862 12.7754 0.492852 10.6919 0.534258 8.54083C0.575664 6.38978 1.44861 4.33838 2.96991 2.81707C4.49121 1.29577 6.54261 0.422832 8.69366 0.381426C10.8447 0.34002 12.9282 1.13337 14.5069 2.595C16.0856 4.05662 17.0369 6.07291 17.161 8.22077C17.2852 10.3686 16.5726 12.4811 15.1728 14.1149V14.1162ZM8.85391 15.742C10.7213 15.742 12.5122 15.0002 13.8326 13.6798C15.153 12.3593 15.8948 10.5684 15.8948 8.70107C15.8948 6.83371 15.153 5.04282 13.8326 3.72239C12.5122 2.40196 10.7213 1.66015 8.85391 1.66015C6.98654 1.66015 5.19565 2.40196 3.87522 3.72239C2.5548 5.04282 1.81299 6.83371 1.81299 8.70107C1.81299 10.5684 2.5548 12.3593 3.87522 13.6798C5.19565 15.0002 6.98654 15.742 8.85391 15.742Z" fill="#A2A3A4"/>
</svg>
