<svg width="24" height="24" viewBox="0 0 24 24" fill="none" xmlns="http://www.w3.org/2000/svg">
<g clip-path="url(#clip0_1065_893)">
<path d="M23.6833 8.72649C23.5278 8.24567 23.1014 7.90417 22.5968 7.8587L15.7433 7.2364L13.0333 0.89323C12.8334 0.428358 12.3783 0.127441 11.8727 0.127441C11.3671 0.127441 10.912 0.428358 10.7122 0.894317L8.0021 7.2364L1.1475 7.8587C0.643861 7.90526 0.218483 8.24567 0.0621369 8.72649C-0.0942093 9.2073 0.05018 9.73468 0.431172 10.0671L5.61161 14.6104L4.08402 21.3394C3.97224 21.8342 4.16428 22.3456 4.5748 22.6424C4.79546 22.8018 5.05362 22.883 5.31396 22.883C5.53842 22.883 5.76108 22.8225 5.9609 22.7029L11.8727 19.1696L17.7823 22.7029C18.2148 22.9631 18.7599 22.9393 19.1695 22.6424C19.5802 22.3447 19.7721 21.8331 19.6603 21.3394L18.1327 14.6104L23.3132 10.068C23.6942 9.73468 23.8396 9.20821 23.6833 8.72649Z" fill="#FFC107"/>
</g>
<defs>
<clipPath id="clip0_1065_893">
<rect width="23.7452" height="23.7452" fill="white" transform="translate(0 0.127441)"/>
</clipPath>
</defs>
</svg>
