<svg width="34" height="29" viewBox="0 0 34 29" fill="none" xmlns="http://www.w3.org/2000/svg">
<path d="M32.5833 12.7503H4.32154L15.1435 2.44268C15.7101 1.90293 15.7321 1.00618 15.1923 0.439512C14.6533 -0.126446 13.7565 -0.149113 13.1892 0.390637L0.830167 12.1631C0.295375 12.6986 0 13.4098 0 14.167C0 14.9235 0.295375 15.6354 0.854958 16.1943L13.1899 27.9427C13.464 28.2041 13.8153 28.3337 14.1667 28.3337C14.5407 28.3337 14.9147 28.1863 15.193 27.8938C15.7328 27.3271 15.7108 26.4311 15.1442 25.8913L4.27692 15.5837H32.5833C33.3653 15.5837 34 14.949 34 14.167C34 13.385 33.3653 12.7503 32.5833 12.7503Z" fill="#0957DF"/>
</svg>
