<svg width="26" height="22" viewBox="0 0 26 22" fill="none" xmlns="http://www.w3.org/2000/svg">
<path d="M25.5458 10.8599C25.2678 10.394 24.6191 10.2194 24.094 10.5105L20.5726 12.4321L19.6768 12.927V17.5272L20.5108 17.993C20.5417 17.993 20.5417 18.0221 20.5726 18.0221L24.0322 19.9146C24.1867 20.031 24.4029 20.0893 24.6191 20.0893C25.206 20.0893 25.6694 19.6526 25.6694 19.0994V15.198L25.7003 11.3548C25.7003 11.1801 25.6694 11.0055 25.5458 10.8599Z" fill="white"/>
<path d="M4.97357 9.37497C7.72276 9.37497 9.94683 7.2787 9.94683 4.68748C9.94683 2.09627 7.72276 0 4.97357 0C2.22438 0 0.000313627 2.09627 0.000313627 4.68748C-0.0305762 7.2787 2.22438 9.37497 4.97357 9.37497ZM4.97357 2.76591C6.11649 2.76591 7.0123 3.63935 7.0123 4.68748C7.0123 5.76473 6.0856 6.60906 4.97357 6.60906C3.86154 6.60906 2.93484 5.73562 2.93484 4.68748C2.90395 3.61024 3.83065 2.76591 4.97357 2.76591Z" fill="white"/>
<path d="M17.5775 9.63685C16.7744 10.0153 15.8786 10.2483 14.921 10.2483C13.7472 10.2483 12.6352 9.928 11.7085 9.3457H8.18704C7.26035 9.928 6.14832 10.2483 4.97451 10.2483C4.01692 10.2483 3.12112 10.0445 2.31798 9.63685C1.60752 10.0153 1.11328 10.7723 1.11328 11.5875V18.6915C1.11328 20.0017 2.2562 21.0498 3.61535 21.0498H16.3111C17.7011 21.0498 18.8131 19.9726 18.8131 18.6915V11.5875C18.7822 10.7723 18.288 10.0153 17.5775 9.63685Z" fill="white"/>
<path d="M14.9205 9.37497C17.6697 9.37497 19.8938 7.2787 19.8938 4.68748C19.8938 2.09627 17.6697 0 14.9205 0C12.1713 0 9.94727 2.09627 9.94727 4.68748C9.94727 7.2787 12.1713 9.37497 14.9205 9.37497ZM14.9205 2.76591C16.0634 2.76591 16.9593 3.63935 16.9593 4.68748C16.9593 5.76473 16.0326 6.60906 14.9205 6.60906C13.8085 6.60906 12.8818 5.73562 12.8818 4.68748C12.8818 3.61024 13.7776 2.76591 14.9205 2.76591Z" fill="white"/>
</svg>
