<svg width="25" height="25" viewBox="0 0 25 25" fill="none" xmlns="http://www.w3.org/2000/svg">
<path d="M22.3501 16.6504C20.8624 16.6504 19.4016 16.4177 18.0173 15.9602C17.339 15.7289 16.5052 15.9411 16.0912 16.3663L13.3589 18.4289C10.1902 16.7374 8.23837 14.7862 6.57003 11.6413L8.57193 8.98023C9.09204 8.46082 9.27859 7.70208 9.05508 6.99016C8.59566 5.59861 8.36228 4.13852 8.36228 2.65014C8.36234 1.57493 7.48761 0.700195 6.41246 0.700195H1.94988C0.874734 0.700195 0 1.57493 0 2.65008C0 14.9741 10.0261 25.0002 22.3501 25.0002C23.4253 25.0002 24.3 24.1255 24.3 23.0503V18.6002C24.2999 17.5251 23.4252 16.6504 22.3501 16.6504Z" fill="white"/>
</svg>
